<mxfile host="Electron" modified="2023-11-27T19:21:31.622Z" agent="Mozilla/5.0 (Macintosh; Intel Mac OS X 10_15_7) AppleWebKit/537.36 (KHTML, like Gecko) draw.io/22.0.3 Chrome/114.0.5735.289 Electron/25.8.4 Safari/537.36" etag="ZpiSDltADhKHYbeU50wL" version="22.0.3" type="device">
  <diagram name="Page-1" id="mMM1MSOU-82RUmLa6_2L">
    <mxGraphModel dx="1114" dy="781" grid="1" gridSize="10" guides="1" tooltips="1" connect="1" arrows="1" fold="1" page="1" pageScale="1" pageWidth="729" pageHeight="729" math="0" shadow="0">
      <root>
        <mxCell id="0" />
        <mxCell id="1" parent="0" />
        <mxCell id="ifjqXQPtvGHxN6ZUCEOt-2" value="" style="rounded=0;whiteSpace=wrap;html=1;strokeColor=none;" vertex="1" parent="1">
          <mxGeometry width="729" height="729" as="geometry" />
        </mxCell>
        <mxCell id="ifjqXQPtvGHxN6ZUCEOt-1" value="" style="shape=image;image=data:image/png,iVBORw0KGgoAAAANSUhEUgAAAtkAAAFHCAIAAAD7q8dnAAAABGdBTUEAALGPC/xhBQAAACBjSFJNAAB6JgAAgIQAAPoAAACA6AAAdTAAAOpgAAA6mAAAF3CculE8AAAABmJLR0QA/wD/AP+gvaeTAAAACXBIWXMAACKaAAAimgG+3fsqAAAAB3RJTUUH5wsaBCkyBHlhxwAAABBjYU52AAAFiwAAAUcAAAAAAAAAAMUH1oUAAHTkSURBVHja7d19eFNlui/+lWQlWWnSZvV9lZYmxQIBCg0WaHlRooBERYmKUkfEjqIUxz3D2XvmbPeeva8zZ1/zmzNzxjPj7HGkIGhVlCKoRUFbLJJKkRRBUiiQlkKTvq6+J23arCQrye+PJbGWJE3btCtN788fXkCT9CYg/fZ57ud+OB6PBwEAAAAAYAmX7QIAAAAAMKNBFgEAAAAAmyCLAAAAAIBNkEUAAAAAwCbIIgAAAABgE2QRAAAAALAJsggAAAAA2ARZBAAAAABsgiwCAAAAADZBFgEAAAAAmyCLAAAAAIBNkEUAAAAAwCbIIgAAAABgE2QRAAAAALAJsggAAAAA2ARZBAAAAABsgiwCAAAAADZBFgEAAAAAmyCLAAAAAIBNkEUAAAAAwCbIIgAAAABgE2QRAAAAALAJsggAAAAA2ARZBAAAAABsgiwCAAAAADZBFgEAAAAAmyCLAAAAAIBNkEUAAAAAwCbIIgAAAABgE2QRAAAAALAJsggAAAAA2ARZBAAAAABsQtkuAAAAAAAj0TRtNptpmsZxHMMwtsuZXJBFAAAAAPbRNG29zWKxdHd36/V6oVCo0WgyMzPZrm5yQRYBAAAA2NTZ2WkymTo7Oxtu0+v1JEkiCHLPPffcfffdkEUAAAAAMIlOnjz5v//3/25oaLjzQ+fOnTtz5sy9996LopH89Rp6VwEAAAA22Ww2m83m80M0Tff19VmtVrZrnFyQRQAAAAA2xcTExMTE+PsoTdM0TbNd4+SCLAIAAACwKT4+Pi4uzt9HmW5WtmucXJG8/wQAACCEXC4XdRvzzbrb7Xa73S6Xy+VyeX/sdru5XC6Px0NRlPnvcDwej8/nYxjG5/M5HA7bv6ewEHhdxGKxWCwWtmucXJBFAAAAjOR2uy0Wy9DQkDd82Gy2/v7+zs5OkiQ7OzvNZrPNZmM+ZLfbh//A6XSiKBoVFSWRSMRisVgsHv4DiUQSHR1NEERiYmJMTExUVBTzyKioqBmbTmJjYwOsi1y5cuXKlSvZ2dlslzmJIIsAAABAPB7P0NAQM9liYGCgu7v76tWrRqORJMmOjg7mvwMDA263OySfjsPhSKXS2bNny2+TyWTedMJEFrFYzOPx2H5jpkJiYmJiYqK/jzqdTofDwXaNkwuyCAAAzFBut7u/v7+3t3dgYKCvr89kMl2/ft1gMFy/ft1kMtnt9sn71B6Px2w2m83mK1euML8yPJ1kZGQoFIp58+YlJSXFxcXhOC4SibjciG1wDNyd2t3d3draSlFUBE9fDZcs4vF4BgcH29raPB4P27X4wOPx0tLSIvjvAQBg5nA6nWazuaenp62t7fLlyxcvXrx69eqtW7fYbUq4M53gOL5w4cKcnBylUjl37tyEhITY2Fgcx4VCYYRt5QTuTh0aGqqpqWloaMjKymK70skSLlnE6XR+9913r7/+usvlYrsWH2JjY3/7298qFAq2CwEAgHGiKKqnp6enp6epqem77747d+7cxYsXe3t72a7LL7PZ/O2333777bccDicpKSkrK2vZsmXZ2dlyuTwhIQHHcalUKhAI2C4zBEY9tVtbW1tbWwtZZNI5nc4rV6589tlnbBfiG0EQv/jFL9iuYoZilpE7OzvDc82Mz+fHx8dLpVK2CwlHTqezu7u7v7+f7UJ84HA4YrE4NTWV7UImHU3TnZ2dbW1tDQ0NOp3u3LlzV65c8TdZa6xQhINyOCiHgyJc2uOhEBc9Cf+fejyejo6Ojo6OU6dO8Xi81NRUpVKZk5OzdOnSOXPmJCUl4TjO5/On+p0NHWZBKMADWltbGxoaInibJlyyCAD+DA0NnT59+p133glV01xo4Tj+0EMPPf7445H6b8REdHZ2Hjhw4Pz582wX4gOfz1+2bNlvf/tbtguZLN6N7xs3bpw+fbq8vPz69euhWniWcNEEnjAeFRJ8TMLlS7h8CRe1up2kk7K47VaXy+p2Wt201UWHPJ24XK6mpqampqbPPvssOjpaqVSuX79+xYoVcrk8KSkpJiZmOs5KH3WCiNVq1ev1EbxNM/3+zMBMMzQ09P3333/++edsF+Ibl8u9du1aSkrKvffeO0N6/oPX19dXXl7+7bffsl2IDwKBIMJ6DrxommY2YvR6/YkTJ7755pu+vr5QvbiEi8r44jxxwpqoxDVRiZnC6BEPsLrpBsdAg32gwWltsA+0OodIJ0V5XFa300w7QxtNBgYGzpw5c+bMmbi4uOXLl99///05OTnp6elJSUkSiWQa/f8YzDSz2traCxcuZGZmRuS3PZBFAJgQt9t97dq1P//5zwRBLFiwgO1ywIw2NDTU1tZ28+ZNrVb75Zdf1tbWhrADD+NwZXzJGkliAT5njdjvAVQJF1VisUoslvkpE01Ip63BYdVTfa3OoW7aTrndZrfd6qIpj5vyhKDC3t7e8vLy8vJygiDy8vLuv/9+pVKZmpqalJQUFRUV/gdw6urqDAZD4Me0trZqtdply5ZF5NIIZBEAJsput3/77bd/+9vf/uu//ispKYntcsBMZLPZWlpaLl68+Mknn2i12q6urtC+voSL5kYl/DphgTo6ZaxPVGKxyLBoQtI2kqb0tr4Gh7XVOWh0DIYwmpAkWVpaeuzYsdmzZ69evfq+++5bs2bNXXfdFc4trlarlSTJUddFrFarTqfT6/UKhWI67kMFFmm/HwBYYbFYPvvss4yMjF/84hcSiYTtcsAMYrfbme2Yw4cPl5eXT8bFJQSKrZOkFMZlBlgOCZKEi2YKojMF0WuiEhFf0aTFOUS53Wa3w+pyWt2u8UUTj8fD9JQcOXLkpZde+u1vfztr1qyQvy2hwpyRCeaRra2tVVVVeXl5mZmZbFcdYpBFAAiN9vb2d955Z+7cuZs2bQrnb8JAxLDb7a2trZcuXTpy5MiXX345SeeVJFz0GVz+68SFBBr6NoU7owmTTphoUme3MNGE6YQ1u5xjjSY0TdtsNqfTORnvTKgYjUaj0RjMI61W67Fjx+RyeWFhIY7jbBceSpBFAAiZmzdv/r//9//S0tKWL18eqX2RIBw4HI62tja9Xn/06NETJ04EPg46ERiHu1acrImZPRlB5E4SLirhogSKMe0m3mjCdMLqh/pa6UGryzXBVZOwQtO0yWRqaWkJ8vEkSR4+fDgtLU2j0UTSEixkEQBChqZpvV7/2muv/d//+3/lcjnb5YAI5Ha7e3p6Ll68ePjw4c8++8znpDIBV5AgSBDwBFwOV8AVIAhCe+h+R/+Qa8hKj20HRyGU7gjF1sz4jIgmyO1OWO+qiYHqb6FtZtc0vqvFaDTW1taOaWdNr9fv37+fIAiVShUxjSMR8tsAIEwMDQ19/fXX//jHP/7t3/4twMWbAIzD0NCQwWA4ceLEO++809jYOOKjKAeNE8Qli5IzozPXJK6JE8QJuII4QRyCIFbaes1yzTRoumy+3Ovo7aQ6gwklEi66TpKcFxXP9u/7JyV5D+lY3bSe6jtsMVYMdLQ4h6xuesIvP9Vomi4vL6+oqBjrEy9evHj06FG5XB4xjSOQRQAIsZ6eno8++igzM3P79u0ikYjtckAkoGm6vb29qqrqwIEDWq12xEldlIMmCZMW4YvWJK1RE+oV8St8vMRsxOF2NA01VXdXH289/m3Pt02DTYE/6TJR3KaYtMC7MxaXg6Qpq4umETfG5WEcnoSL4jyBkMNDJ3mbUsJF10QlKrHYh6O73u29VTFIdtOTeJnfZDAajTqdjiTJsT6RaRwhCKKwsJAgCLZ/HyEAWQSA0Gtubn7zzTczMjLWrVs3jQYugTDk8Xj6+/svX7585MiRDz/8sKenZ8QDonhR2bHZW9K3FGQUMKsg/gi4gkxJZnpUem5C7qn2U0U3i5oGm3odvu+jQRHO6qikZSK/L2j3uIyOoTJrW9lAe4NjwOqmCVREoFimUKLE4tJQUQIqwDgozuNLuHwhh4dNzpAPCRdVS1IyBZK0HlGJuYl02SZjCP1kGHVRJCYmhsPh+LuwkCTJvXv3IgiyY8cOgiCm+2bN9K4egPDk8XiuXbv229/+1ul0Pvzww2yXA6Yrq9VaVVX16aeffvXVVz43ZeRi+VbZ1oKMgszoYNfqmUQiv0u+PmV9iamkuLG4YaDhzocloMJlUXESru+vERa3o9TS+nqPQW/7caIr6bQhCIIMIAiCYBwejgpwLl8ukBAoRvAxOV+McwVyoZhARVKuAOeF8vqYTEH0b5OylkUlvN5t0A11T9ofSChduHDh+PHj/hZFpFLp9u3bMQx7//33/T2GJMm//e1ver2+sLBQpVJN63mskEUAmBQ0TV+9enXPnj2zZs1aunQp2+WAacbtdre3t3/yySeHDx/+7rvvHI6R7ZkYF8uJzynMLFxPrCewMa/So1xUFiV7Rv4Mzsf339qv79OPeEACKlQIY/w9XTfUXdR7Y3gQGYHyuEinjURsBns/4iuaECiGcwVygZjgi5J5oolHE5wn2CghzC6H2eVgPmk4MxqNhw8f1ul0/h6gVCoff/xxHMebmpqOHTtGUZTPh5nN5vLycoqiKIpSqVTT96AvZBEAJovNZjt79uzevXv/4z/+Iy0tje1ywLThcDhqa2vff//9Tz/91GQy3fkAjIvlJuS+uvBVdYp63J8F5aJysTxflk+5KZIiSdtPvvmWcFEC9d3tZHJaSy2temoMd9zcGU0wLg/n8eUCCcHD5EIxE00IPkagIhlfMr5ogvMEm2NSSaetqLeBpENzEfFkMJvNx44dKy0t9XcYWyqVqlQqpVKJYVh+fr7JZAqQWiiKqqystFgsBoNBrVYrFIrpuEACWQSASWQ2mz/77DOZTPbKK69ER0dP/AVBxOvv7//666/ff//9r776amBg4M4HhCSIeEn50k2zNhkHjW/UvzH813kIF+P4bnUy2Af0VB/lHv9sD8rjolwus8thdAwiw6IJwRcRPJFcEEXwRQQPG0c0IVCRRpqmt/eVWoKd2DH1Kisri4uLA8w3UyqV3kUOlUplNBpJkgzweIqidDqd0WjU6/UajUalUoW8oZWiKLPZzIQngiBCvgADWQSAydXR0fHee++lp6fn5+dDHysIwO12t7a2fvzxx4cOHbp48aLPa+1CG0QQBEG56F2Su7bJt+n79FVdVT/+Oofjr9uU2QcJ4W98RDRBEATj8Ag+NiKa4DwBwcfmC6SBo8l8YYxaPEtv6/O+WljR6/XFxcV6vd7fA7yLIsxPcRzXaDRms/ndd98NPJ6VJMljx47V1dXp9Xq1Wq1UKkOSGMxm89WrV6urq2/cuGE2m5OTk/Pz8/Py8kL7tkAWAWByud3uW7du7d27Ny0tbe3atWyXA8KU3W6vra197733SktLm5p8n7ZNECZsTt28JX1LMEHE5XGZHWYrbRXyhIEbSlAuqohW5Mvy9X16Zu4IinAkvMBfHSb3vC7lcRkdgyOiCc4TEKhIKcKVGJ4rSpQLxD6fi3F4qugk7VBHGGYRvV7/t7/9TavVBnjM8EURhlwuLygowDDs3XffDXydL0VRer3eaDRWV1fn5uYqbhtfKGFSSGVlpVar1ev1zIWLMplMqVRCFgFg+nE4HJcuXXrzzTcJgpg/fz7b5YCwMzAwoNVqDxw4cOrUKX8jOAmMeOGuF4I5MmN32WsttRVkRYutxUpbJagkS5qlkCpyYnMkqO+p4WJUnBeftyZpTVlbGfMrLg9CeVw+t2mY5lOD3YJMFSaaIMgggvRprR1yoVgtmfUcnqEUxfp8vIwvVgpjy3jtYTWSlQkiAdpEEASZP39+fn6+d1HEi4kjOI7v3bs3wJoKw2w2a7VanU5HEIRCocjOzmYSiVwux3E8cDcJRVHMflBdXZ3BYLh69ao3hTA6OjoMBoPZbA7tNg1kEQCmgtVqPXXqVHp6+v/8n/8zMZGdidogPDGdjHv37q2urna73T4fQ2DEzsydhXMLRz0y00F1lJhKKjoqtJ1aq9OKIAjKQROwhCxpliZVs3HWxkyJjyiDctFMSaY6Rc1kERrxdNOU2eUkUB9ZRC4Qy/lihCWUx2Wg+kknhSAenKfwuTqCcXjKqFiFMCZ8zvcGE0SkUqlGo9FoND6/zBMEkZ+fj2EYc4539DeKophb97RaLRNK5HJ5cnIy0+3hDSXMGRzmBx0dHSRJMlnEYDD4PEvMLL0YDIbQLo1AFgFgivT09Bw5ckQmk+3YsWM6NrqDydDV1fXRRx+99dZbNTU1/h4zpiBSdKOo6GbR8EMxtIcmbWQ31W0cNJqd5l/N/5XP1RExKs6KySJEBPNcpnvD59DVZFSkEifrhrpZPDprdjmO9bdgHHStJJGZsYZzBRj3x+REoNjU3Oc3eqlmM9OsqtVqAwQRoVCoVqvz8/MDtJ0yvSMIghQVFdXU1Pg76DuCN5QgCIJhGH7bnVmEJMlg7lm8du3atWvXIIsAMF21tLQcOHBg9uzZjz76KFzkO8N5PJ729vb33nvv7bffvnHjhs/HMNPMnpE/M+4g4kV7aKPVWNpamhOX47PdBOWiCcIEAvshizAX5Pr8RBiHtzGaMLscRb03WIwjRsfgu+Zb2sEOAhURfCyZhxH82weD+SLK7RoeTVgr0mg8duxY4GZVhlKpLCgouHN3ZgQmjuA4XlJSUllZOdb58UzgGMfU+eE6Ojq0Wu2qVasUCkWo3ijIIgBMHZfLZTAYmAFoy5cvZ7scwBq3220ymQ4cOPDee+81Nzf7fEzw08zsLrverC++VVzaWuoziDBoD93Q31DWXuav9RXjYd5PRHlcAZotCFS0FU/HefwSs0lP9Zndzokc8R0fD4K0O23tzh8CE8bh4Sgf5wqYQzcYl8fkpPb2doPBIBQKR22VCC1mOaS0tFSr1QY+/4IgSHZ2dmFhYZArDTiOq9VquVyuVCrLyspqamqCWcwIIYfD8fXXX997772QRQCYriiKOnfuXFFRUVJSkkwmY7scwAKXy1VfX19UVHTo0KHhXYHDBX921+6y63p0f7z+R2/baQBW2nrVcpWkSJ/hBuNhhOiHX7e66MrBzryoBH/TVwlUtBWXzRdK9ba+DpfN6Bg0uxyk02Z0DrISTSiPi3S6SIQasVTDNGrIZDJvqwRx2yRNKTWbzXq9ngkiwTR2BG4T8QnDMKVS6Y0j5eXlgc/XhFzIO1ghiwAw1fr7+0+cOCGXy3/5y19KpVK2ywFTyul0Xrly5c033zx69Ki/a88mKYggCEJ76G6q218WQTmohP9DKwmNeLSDHXlR8XKB2N/QM4zDy4uKz4uKpzwu0kmZXQ6SpoyOweHRhKQps9vJ4nkWkiS//PJLZFirBBNEZDLZndFkIgsnzPaHXq+vrq7W6XR6vT6Y5Yr58+ePNYh44TiuUqkUCoVSqSwpKamurp6aBRIUReVyeWhnSUMWAYAFnZ2dBw8enD179jPPPMPnh/KSMBDOKIq6ePHi3//+988//3xoaMjnYyYviDBQLurvZC+CIMiwO25JJ6Ud7MwVJSpFeODXxDg8uUCMID8caRkeTUia6qBtRseg2e0w2q0sRhNvqwSzhIBhGJNOvFmEWTiJioryeDxxcXFLly4N5sst87IGg6GmpsZgMDBnTILsKmW2ZjQazbjHpGIYJpfL8/PzFQqFVqtlCqirqwuygLHi8/kKhWLt2rV5eXmrV68O4cISZBEAWODxeBobG/ft25eWlrZ+/Xq2ywFTwWaznTt37vXXXy8vL7/zrjtG8NPMLA5LGVlW3Fg8tiDCQeMF8f66T5iLaX78qceltXbIBWKcN9ffYDGf7owmZtppdjuMjkEmmpC0zexyGh1W0kmRLoqtaMLMNfc2czDRZHgWmT17tkAgEIvFycnJycnJUVFRzHcO3ueaTCZvvmH2LIIvIDs7e/fu3eNbERn5hmNYXl6eUqkkSVKn0zGjyerq6kK7TCKTyR544AG1Wr1q1aqQz5iHLAIAO5xO5+XLl/fs2ZOSkrJo0SK2ywGTy+FwXLx48bXXXjt58qTP4e7IWKaZdVAdxbeKS5pL9L36MZVBYMSmtE3+1kWsTmvDQMPwXyFpqsRswrmC52LnjPuILMbhEXwegWBM6wnlcVFuN3NmmHTZTI5BJpqQThtJ24zOIbY2dJgVDubHjY2NFy9e5HK5gbOI0Wgc39f7EAaRH99nDJPL5QRB5OXleVdomDEhFotlIrlEKpXm5eVpNBqmZzaE77kXZBEAWDM4OKjVat96661XX3015N9ngPBB03Rtbe1///d/V1RUBAgiExkiEgzmYM6W2Vv8PcBKWxusDSN+0egYLDEbMS53c/TsMa2O+C2Dw8N4zCW9YmRYNCFpiqRtRsdgB20jaYr1aIIgiNvtZmJHT0/PtWvXQvKaUqmUOb4bZBBhJo8xkz+YfSVmcJm/5zKJRC6Xq1QqZsGGvM1sNnt/QFGU1WqlKMrfX0iv5ORkjUbDnDeevINIkEUAYFNvb+8nn3wik8l27twZFRXFdjkg9Fwu140bN5geEafT6fMxUxNEchNyCzP9fopBetAwYGBGtY5gsA8U9TaQTvtzsRn+jtWM24hogtxuNxkRTcwuBzMyRCYQ41wB5XYxmztMe6yF1fbYIAmFQoVCoVarg7m4jqIog8FQXV3N3C8zIot4x7oHE0qQYQs5w0PJ8ePHdTpd4Jqzs7Pz8/M1Gk0Ij+/6BFkEAJa1tbW98847s2fPfvzxx7l+bkYF05TH42lqatqzZ8/HH3/ss50Q42IKqWJz6uZRg4jL4zIOGg82HhxHECEwYmv6VvUsdYA2FNJGlrX7bj1hxq4X0zdJl00tIQLcSxcSTLvJiGhidjkojxvjcOUCCc7j/7Q91uY9sMP0oHSw1IMSQHJyslqt1mg0eXl5oy6CGo3G8vLysrIynU7ncy4ZM9Y9OzubSTaj7pt4G3W9j9RqteXl5YEXRSZjI8kfyCIAsMw7bSI1NXXlypVslwNCqbW1df/+/R9++OHAwMCdH2XWKnbP352XkDfqNLMLvReKGooqOirGEURGXXRhrtOr6qoK8DokTZX0mXRD3Spxcp4oXoHFzBdIcd6knwIb0Qnr8xeH96BUDnWUmE3eLCKRSKRS6eDg4BQPBPNimi2Y0BDM6oJer3/33XdLS0uZplqpVMosb+A4zixvkCRZV1fHLJYwN9gFM7B1OGYabODZJ1MZRBDIIgCEA7vdfv78+aKiouTk5Dlz5rBdDgiNrq6ugwcPFhcX9/T03PnRyT67ywhy94ekyMAzWxnMAonRPljGb1MIpUoRrhDE4DwBwccIVCTlCqYgmvjk3eiJRfnVtm6z+8e9MKVSqdFonE4n02fKbFJ0dHRMQTRJTk5WKpVMEAmy2WL4FXpMiGEmiIzIInq9XqvVVldXM+0gFEXt3r07yG0U5i7GwLf0TXEQQSCLABAmBgYGvvzyy/T09H/+53+OjY2d+AsCdvX29h45cuStt95qa2u786NhFUQG6cGqrip/GzR3ojwuo2PQ6BjUWjsIPobzBMztdAQfk/PFOFcgF4pZiSYWt6PU0lpiMZHOH2/SmTt37pYtW5KTk81mszeL3NnOOcGTJsOhKCqTydasWcOcsw3Q0jHC8JQQuGNUpVKpVKqSkpJjx44xixwEQRQWFgbTAq/X672LLj5NfRBBIIuAEdxud39/f3Nzc39//+DgoNVqtVqtNpvN7XZHRUVJJBKxWCwWi5kBQQkJCXDBWwh1d3d/+OGHMpls+/btAoGA7XLA+DGjdd98881bt27d+dEpCCIYF8vCs7bKtm6Tbxt190fXoytqGHMPCnI7lCDIIIL0IT/cCCPAuXy5QMJEE+b6XLlATPBFyTzRpEYTJoi83mPQ2/p8vCEYxgw08y4eeK+l9eaS77///vLlyy0tLcy/eOOuRCwWb9q0affu3WM9/qrT6crKysxms0wmy8/PLygo8LfUwQwUYWbFvvvuu0ajsbS0lFkBCvwpRt2dGcdA+pCALAIQBEGcTmd7e3t9ff2NGzdu3LjR1NTU39/PBJHBwcGhoSG3282kECaOSKXS1NTUuXPnzp8/PzMzMy0tDb52ThzT5/jWW2+lpaWp1eqJvyBgBXPl0N///verV6/e+VEJKlmbtPaVea+MGkR67D2lraVHm4+OI4jkJuT+WvFrVbIq0IjV20HkNcNrgTtFgv2Ne1yk00YiNuZGGIzDw7jMARkJwcPkQjETTZgNHRlfEsJoEjiI+H6XMGx4VqAo6tatW5cvX66tra2pqamrq2ttbfU3Gzcwl8vV3d091lUWg8Fw+PBhvV4vFArVanVhYeGoUYaZuOptHCktLWVO1gR4CrO5E6A2ZkdpioMIAlkEDA0NXb58+cyZMwaDob6+vqGhobOzM5jvCbhcblxc3Ny5c+fOnbtgwYLc3Nzly5dLJJIgPifwi6bpK1euMAPQsrOz2S4HjJnb7b558+bevXsvXLhw50e9KyJrEtcEfp0OqmP/zf3FjcUjho+Namp2f4JBeVyUy8X0kyLDognBFxE8kVwQxVyoO8FoYve4DPb+soH2Eosp+CDi433DsIULFy5cuNBsNjc0NNTX17e0tPT29nrXToIfY2q1Wk+cOIGi6O7du4NvKa2srCwrK6MoKjc3V6PRBLmmIpfLNRpNXV2dTqcrLy9XKBSFhYX+kgRFUUzTq79Xy87OHmsbbKhAFpm57Hb79evXv/rqq1OnTp0/f76vb2z/G7vd7u7u7u7u7nPnzkVHR+fk5Kxfv37dunWTOg9nJrDZbN98882+ffv+/d//PTU1le1ywNh0dXUdOnTo5MmTHo9nxIe8yxXBBJGJDBEJhyBypxHRBPlhHis2IpownbByvkTK4/u7k++H34LHZXRatdausoE2na1neI/IROA4vmzZsmXLliE/3cfRarVarTbIRMJ0fiAIEmQcMRqNzPFdqVSqVqvz8vKCrBbDMJVKxYxYZXpaSZL0l0UMBoNOp/NXP7M7o1arWfkHHLLITORyuZqamr744ouKioqzZ8/6u7U8eAMDA1qttqampqqqasOGDRs2bMjKyoJWknEzm82lpaUymezll1+GpaZpxGq1njp16oMPPhgcHLzzo2lRacFszYw7iAS/+zP1QcQnbw8s81MmmjCdsHKBmEAxOV+M8wTMUgrG4WEcHsLxeK+2Mdj7DfZ+3VCP0WGdWCF+Dd/HUSqV3q/6wdw/N6Y4wgxrRxBEoVDk5eWNaYsEx/G8vLzy8nImzZAk6W+bhrlA2N/rsLU7w4AsMuPY7fbLly/v37//iy++aGlpCeEr9/X1lZeXf//995cuXdq+fbtKpYIbaMeNJMl33303PT39ySef5PF4E39BMNmYQe9vvfWWzzVwnI9vTNkYOCXYXXbDgKG0uXR808yekT+jSdMEs+hSYiopI8vYDSJ3urMTlokmOE9A8DCMy8O4PMSDmN0Os8thdAwZnVbK7Zrwpw0WQRBqtZoZrK7T6UpLSysrK30OIvPyxpHCwsLAC8ZMhkAQZNSGD5+YZ+l0OqPR6G8Lxrv04vOjzCg2VnZnGJBFZpbBwUFm/b+8vNxmC82S5nAej6ezs/Pjjz9ubW3t7u7etGlTdHQ027/pacntdjc0NDAD0O655x62ywGja21tfffdd8+ePevzozKxbEfmjgCdpMxaxet1r+t6dJMxzYwx7kWXqTcsmoQR7/1zCoVCqVSWlpbW1NQEWCBh4ggz/yPAzgtz3hhBEBzHx7Ey4X2W93XupNfrAxyfYeagsLi9DllkBunt7T1+/PiBAwfOnj076n1IE2Gz2aqqqnp7e7u6up566im49W18mJtdi4qKCIKYO3cu2+WAQPr6+j7//POPP/7Y540zElSyLH6ZElf6e/oUDBFBplUQCXMYhimVSrlcrlAoSkpKAi+QmM3m8vJyZnaqv38M7XY7E2iYYe3jqId5lvd1RgjctSoUCpk5KCy+pXD5xUzBTF567bXXvvnmm0kNIgyn03nlypW//vWv+/fv7+zsZPt3P11ZrdaTJ08eOHDA5+BOECaYsbkHDhzw13qVIEwIsHUCQWSawnFcrVa/+uqrzz33XOBjL2azuaysTKvV+ltBubPTeXz8vY7RaNTr9f6WTMbRpBJysC4yI1it1oqKCn8DDyaJ2+02mUxvvfWWRCLZsWMH9GCOT09Pz+HDh9PT01944QWhUMh2OWAkj8dz69at/fv319TU+HsMzseVsUp/HzUOGsc3zSw7LrtAXqCZrRl1mlmtpbbEVHLQdBCCSGgxCyQ4jmMYxswc8/fIurq6kpISuVzuc6eG2WRhzuyYzeaxriWPusUToI8EQRClUslipwgDskjkY75p+8c//jGVQYTh8XhaWlreeuuthISErVu3QivrODDv4YEDB2bPnr1p0yY4nRRuenp6Pv3007KysgDf2opRcaYk0+eHLA7LONpIx3p29zXDa9pOrdU5WedNZji5XF5QUIAgSIA4QlFUZWUls01z5yIKs4NDkiQTGsaaRbxRg5kt6/Oz+1uSkUqlCoWC9Z10yCIRjqbpa9euvfHGG/5a6iab2+2+cePGm2++mZCQsHHjRvhSOg40TV+/fr2oqGjWrFk5OTlslwN+xOxFHjx40Gr1+2Ue42Jp4jR/XasttpajTUfH9EnDaogIh8Ph8/lRvggEArfbbbPZmC+ENpuN+bHFYrFarRMZsh6GmDjCTGT31yLK7NQoFIr8/PwRqxdMFtHpdMzh3uDnizBqamqYT8q8js9P7W+Dhul6YX0oFGSRCEeS5DvvvFNWVjYFPSL+OJ1OvV6/Z8+e9PT0hQsXsv2WTEs2m+3s2bN79+79z//8z9mzZ7NdDvhBZ2fnsWPH6urqAjwG42EB9lCsTmuDdQyTVcMhiERFRc2aNUsul8tksuTkZIlEMiKFiEQibxYZEURsNhszOqytra2tra21tZUkSavVGqqGCRZ5V0fMZrO/1RGTycRMalepVMN/HcdxmUyG43hHR4dWq83Lywu+k1Sv15eVlZEkKRQKmRt973xMR0eHv+5af0spUwyySCSz2Wznzp07cuTIZBzfHWsl33777aFDh/7zP/8Tbq4ZH4vFcvz4cZlM9k//9E8xMTFslwMQu91+6dKlTz/9dMq+xWeGlBTMKRg1iAzSg9pO7Rs33ghVEPHmj+FkMlliYuJY25g8Ho/VaiVJsrW1tbW1lQklLS0tdXV1jY2NAVaYwh/TzcrcLONzHYKiqOrqaq1Wy3SZDH+iSqViPjTqKPfhmDPDWq0WuT2N7c5nMeHP3x4NZBEw6VpbWz/66KPA03imTG9vb3l5+aZNm3Jzc9muZbrq6Oh4//3309PTn376aRSF/3lZ1t7efvTo0aampom8CMpFA19f50VgxHMZz+XL8wOcDWZ0UB0HjQdLW0onfuNddHS0QqFYsmRJRkaGN38kJSVN5DsKDocTHR0dHR3NnFRn7gZvaWmpr69nrqa7fPlyc3Nz4KmmYYu5r85kMpWV+U6BZrOZ2YsZvhHD3Lu7efNmpvODWTsZdRw7s+nDXO2bnJys0Wh8bu4EblyFLAIml9Vq/fbbb0+dOsV2IT9gGkc+/PDDJUuWiEQitsuZltxu961bt/bt25eWlnbfffexXc6MNjQ0pNPpvvjii1EfSXvoAE2jzBGbUS/Am/qzu1FRUatWrVq1alVubm5WVhZBEJO0osnlcpnTH1lZWRs3brx169aVK1euXLnC5JL29nafI1vCFpMqtm7dajQambHud2LuhVEoFCOWRtRqNXOhTE1NTVFREUVRKpXKX1BgVkSKioqYThGVSqXRaHwupXiHut5JKpUSBMF6swgCWSSCNTU1HTp0aKw33k0qi8Vy+vTpc+fO3X///WzXMl05nc5Lly7t2bOHIIgFCxawXc7M1dzcfOjQoWDucqJclGnIRFKkzxiRIExYn7y+qqsqQHSYyiDC4XCkUundd9+9atUqtVq9aNGiqRw7IRaLFy9evHjxYrPZXF9ff+XKlerq6jNnzty8eXMaJRIMw5idGuaM7p0P8DaFjFjGGH7pbmVlZUdHh16vZ0azD/9TYO7Aq66uLi0tZYJIdnZ2fn7+OIaVjW/M62SALBKZKIq6evVqVdVEV2hDy+PxNDU1ffrpp/fddx8cqBm3wcHBU6dOpaWlvfrqq0lJSWyXMxP19/dXVlZWVlYG82DaQ5M2ssHa4DNJiFGxKkmVn56//+Z+Kz1y+QTloHKx/Bn5M1MQRLhcbnJy8ooVK1avXp2Xl7dkyRKpVMrO+4sgOI6vWLFi2bJl69evP3v27Ndff/3NN980NjbSNM1WSWNCEIRGo6mpqfG5U0NRFHPH3ogswly6S1GUUCisrq7W6/VGo7G6ujo3N9e7emGxWJjBZQaDgQk62dnZu3fvHtEMO+Jlw2HlIzDIIpGpr6/v/PnzYdgFNjAwcPnyZZIkU1JS2K5lGuvt7f3kk0/kcvmLL74IG15TzOPxNDY2fvjhhxaLJcinmB1mfZ9+TYKP0asoF71LcteOu3YgCKLt1Or79N4PSVDJ6sTV2+Tb1hPrR51mpjfri28Vl7aWji+IML2TDzzwQF5e3oIFC8LkSxeXy5XJZGlpaStXrrz33ntPnz79zTffmEwmFk8FBk+pVK5du1an0/lbGtHpdCqVasSxFxzHma0WZrS80WjUarU6nc6bJ8xms7eTJjk5WaVS5efn+2xZnV4gi0Smnp6ec+fOsV2FD263myTJ77///uGHH2a7lunNOwBt8+bNXC5c5jB1+vr6Kioqzp8/H/xTuu3dp8hTW2Zv8RkpUC46P3r+vyj+ZU3imqquKqa/RMgTZkoy8xLyRr13d4Jnd1EUzczM3LJli0ajUSqVYXgpNI/Hy8jImD179qpVq+65555Tp05VVVU1NzeH+TFgZiQrc33unR+lKEqr1d6ZRZDbqyPMhFamy7Wurm54oBEKhXK5nLnNTq1Ws3uPTKhAFolANE23tbVN/ZTVIDE5CbLIBLlcrvr6+j179qSmpq5YsYLtcmYKj8djNBpLSkrGdE6eclO15tqq7qotaVt8PgDlomlRaQRGrEteR3toK20NPJXEa4JBJDo6mvnGesOGDYmJiSy9qUFhMpNMJlu1atXJkyc/+eSTCxcuDA6G1y2+IygUitzcXO9myggBWkoxDGMmhTB9J0xDK7McwnR4MFlELpeHyQrWxEEWiUDMPoi/KXus6+/vr6mpsVqtcEPNBDGzCvbs2ZOYmJiRkcF2OTOC1Wo9f/785cuXx/pEkiI/bvpYiSv9DYNHEATlorgARxAkQZgQzGtOJIigKCqXyx977LEnnngiJydnuhwR5/P5CoUiNTV10aJFR44c+fLLL8N5gYQgCGZqiM+lEbvdzjS3+ttewTCMOUfNNJF4s0gI80eA2fBTbHr8/QNjMjAw4O8sWThwOp3t7e3t7e3MdAEwEf39/V988YVMJtu9e/d03zCeFkiSLC8vdzgcY32ilbZqO7SHTYd/Nf9XQQ4UCYy5yKa4sXgcQUQikaxZs+app5568MEHw2G2xFhFR0fff//9crl8wYIFhw4dunTp0jj+RKbAqNs0BoPBaDSOei/dBJtPAzwdsgiYRBRFdXZ2sl1FIHa7vaOjA7JISHR1dX3wwQcymWzbtm1w++Ckcjgc9fX1477aqdvefbT56PyY+VtmbxnfK3h1UB3Ft4pLmkv0vfoxPZHD4cyaNWvLli1btmxZsWLF9B2CzOFw7rrrroKCAplMtn///srKyjBs1UcQhCAImUyGYZjPL/kBtmlCKEAWGXVtZspAFolADocjrMaK+KwwbLeQph2Px2Mymfbu3ZuamvrAAw+wXU4k6+3traysDGamiE+0hzZYDP+48Q8RT7Q2ae24V0fGfXaXy+XOmTNnx44dTz/9dHp6+hS/e5NBKpU++OCDcXFxCQkJX3zxxbj/aCYPhmEEQeA47jNzTE0WCTBEhKIoo9FIkiRkERB6Tqezt7eX7SoCcTgcYV7h9MLcFltUVJSSkrJ48WK2y4lMHo+npaXF32DvIFFuStel+73r9y2DLZtnbw6mO3U4u8tea6ktMZUcNB0caxBBUXTevHm7du16+umn4+Pjp/4NnCRCoXDNmjU4jsfHxx85cqS5uZntikZiej58Zo6Ojg6ms3VSo0AwazOsH8aBo4ARKPy/0od/hdPO0NCQVqvdt29fmFw/FHmsVuuFCxcCX8kbDMpNXei58Hr963sb9lZ1j2Ea4SA9WNFR8bva341jRYTP52dnZ//617/evn17JAURBpfLXbJkycsvv7x9+3aZTMZ2OSMpFAp/X+kpivI3mzUYFEUNHzfij3dtxudHA99WM2VgXSQCOZ3O8Nw69fJ4PNNoovN00dfXV1paKpfLCwsLxWIx2+VEGpIkv/zyy5D0SNIeumGgoaihSNet06RpMqMzF0kX+VsjcXlcpI280HehqqtK160bx3V3QqHw7rvv/tWvfvXoo49G8GS8u+6664UXXkBR9N133w2HL65egeesB9k9ajabjUYjkzzMZrPZbLZYLMxPMQyTSqVMUwhzyoYJH3K53Pt5A6zNMK/G9psEWSQSTYvx6jCeazK0tbUVFxenp6c//vjjYTi0avpiulZDOD+QGQxfQVXozfpMSaYyVpklzUqLSsMFuLePhHbTLbaWCz0XSIq80HdhrG2qDBRFFy1a9D/+x//YvHnz9O1UDVJGRkZBQQGXyy0uLm5sbGS7nB94s4LPzBEgizCrJkajsa6ujjlxMzyLDF8RwW4bnkXmz5+vUCiYa3iZX/H5Wex2OzNRnt1tGsgiEYjP5+M4Hs5LI1wuVygUsl1FBGIuQ96zZ8+sWbNWr17NdjmRo6enZyJdq/4wiYS0kbpuXQKWkCZKw4W4hDcsi1At44sgDC6Xe9ddd/3iF7945JFHIj6IMORyeUFBgcvleuedd8Kkd8QbEYLMIkw/KTNulYkgzDV7AT6F90WGP4zJH4yYmBh/4cw7ARayCAgxPp8fGxvb0tLCdiF+CQQC1tu2I5Xdbr9w4UJRUVFycnJmZubEXxAgCNLW1ja+rlUOD8ViiejUTC4P5UtwngCjbVa3i7b3dw+RRlvvD185vKEkhDVzOJy0tLSXXnppy5YtETOdMxjp6enPPfec1Wo9ePBgmE83QH6aRZiJI5WVlczod2YhZCKv7O0FCfy939S00AYGWSQCCQSCuLg4tqsIhElLbFcRsQYGBsrLy2fPnv3rX/86zP8mTAsURd24cWOsXat8MZ64eA2esUiSmslkEVSCowLMabO6XbTD0j3QerO/sdZsrO26Min3aSclJT333HPPPvtsTEwM22/hVJszZ87Pf/5zi8Xy8ccfs11LUJjcUFlZWVZWptPpQt6BbrfbA392n/cGTyXIIhEo/LNI+Fc43XV3dx8+fFgmk/385z+fIYvzk8dsNuv1+uC7VrkCDJdnpa3ZnLJCHZOuQDHfc0SS76Yd/d29DTWmioMdFyu8ayQhERMT8+CDD77wwgthfsvM5Fm4cOFLL73U398vFovDvDuN6Qhh7uNlq+vWYDDodDqFQsHW0ghkkQgUoE0pTGAYlpSUxHYVkczj8TQ1Ne3fvz8tLQ2uIZygvr6+CxcuBPlgvhhPWbFRvmFbslLlL4UwuDwUiyWIuxMkhDx6Vib5fUWoFkj4fP6SJUteeumlMDzgOmW4XC5zeshms0mlUnaLCTD51GQyMQd/2D3709HRUVZWplQqVSoVKwVAFolAUql04cKFbFfhF5/PnzVrVkpKCtuFRDiapq9evVpUVJSamjrqhRfAH7fb3dXVFcxleN7lkNSVm/C7lEG+PpeHSmbdlfnozriFeaFaIElNTd2+fTvc3oyi6KpVqzweTzivi7CeQhjMRZvMUAC5XD71BYTvnxAYN4lEsmjRorBdm8VxfOnSpVFRUWwXEvlsNltVVVVRUVFrayvbtUxXQ0NDBoOhu7t71EdGJaQptv7L/C27gw8ijNsLJOsWbfuP2WsnelUNjuMPPfTQY489Boe6EQThcDjhEESYWSBsVzEKs9lcVlam1WpZuS0P1kUiEJfLJQhCqVR+9dVXbNfiQ1xcHIsdUjON2Wz+/PPPZTLZP/3TP0kkIbgedqbp6+v7/vvvR72VHoslMtTPpa7cFHhfJgBmgUS+fltfg37cmzUCgWDp0qUvvPBCQkICu+8b8DKbzSRJhuQLvFAoxG9jjgrjOE7d5h06Mu7oYzKZSktLFQrF1P8TDVkkMsXHx69cuTIMs4g3J7FdyAxCkuR7772Xnp6en58P3yuPVW9v76jNIlwBlrAwN/PhHeMOIj+8Dg+VyhfNfewVqpccaG0YxyskJyc/+eST8P9XWJn4YFOpVCqXy5lZ8sw098BZhCRJg8HATCgZ06emKKqyslKhUMjl8iluOoQsEplwHM/JyYmLiwu3a1+io6Ozs7OhcXUqud3uW7du7du3Ly0tbe3atWyXM53QNN3W1lZfXx/4YVEJafIN27DYEPzbjYokyUtU5rVbrn34x7E+l5n1/uijj4bDrgTwGncWYSKIUqlUKpVMFpHL5cGMivHGEeak7phCidlsPn78eGpq6pNPPjmVcQSySGQSCAQLFy5ct27dkSNH2K7lRxwORyaTaTQa+Ldyijkcju+//37Pnj3MZGi2y5k2BgYGrl69OjAwEOAxzO5Mygp1gMfQtkFLY62tu4V2UAIJHpWQimcq/T1YII1PW63pulI11p2alJQUjUaTmprK9tsGfoJJA2N6ilAoVCgUarU6Ly+PCSJjejqGYUwLqkql8oYSrVZbXV0dTCIxGAz79+/ncDhbtmyZsjgCWSRipaamPvXUU2fOnAmfi1ulUqlKpYJmEVZYrdaKior09PTf/OY3YdvXHG6C2aARE7IAuzMuh93SWNtWfbz7mm6oq8XtoPgSXJIsT12jIe5eh8X5+Ieey0OjZyvS124ZUxYRiUQ5OTkPPvgg2+8ZGMlkMgV/UoZJISqVivmncoJRYHgoUalUWq02mETicrmuXbu2f/9+BEGmLI5AFolYIpFo+fLlDz300Ntvv812LQiCIFwuNzMz8+mnn47gm0LDXE9Pz0cffSSTyV544YUZNRR83Mxm8/fffx/gAahIgmdk+dudcTnsPdd1ho9e69RrnbYf74fqa9D33dQPNBkyNj4nSc309bLimIwsURwR/PnelJSUJ598Mjk5me33DPwEc5tMkI2rUqlUrVbn5+dPPIWMgGEYs8SSl5dXWlpaXl4eeKmGmQhw4MABDofzxBNPTEEcgaXySEYQxOOPP56ens52IQiCILGxsRs2bLj77rvZLmRGa2lpOXDgQHl5+agHQ4Db7e7p6WlqagrwGGFMQuLiNf4+OthhvH7oj63njg8PIgiCeFz0QGtDwxf7TacP0zYfd1hyeag4SR7glUcQCARZWVnr169n+z0DI+n1er1eH8wjs7Ozd+/e/eqrr2o0mkn62s8kkt27d//rv/7r2rVrA39DwsSRioqKqbnaDLJIJBMKhTk5Odu3b4+Ojma3EpFItHLlyqeffhrmkbPL5XJdv369qKgo+EGiMxZFUe3t7YEv8kBFEp8LGwiC2C09Ld8cbTvv90Y9u6W79WxpV63vjRiBBA/QUzJCQkLC2rVr4+Pj2X7PwE9QFFVXVxfMBg0TRHbv3j3ZZ6CYXZv8/PxXX31106ZNgbdrY2Ji5s+fD3s0IASSkpK2bdvW1NR06NAhp9PJSg18Pn/x4sW7du3Kyspi+/0ACEVR586dYy7yDZM1s/A0NDQ06qXzPAEmivP9L/VQd0tT5dEAz/W46P7WhvbzZSnL1WN65RE4HM6sWbM2bNjA9hsGRrp06dLp06cDN2cwXXQFBQUqlWrK7oLBMEylUkVHR0dHRx8/fryrq+vOx4jF4k2bNm3bti0tLW0KSoIsEuG4XO6cOXNefvnlzs5OVlbmmQJ27dq1fv16DofD9vsRenw+Pzo6OtzOTgdmsVi++OILuVz+y1/+kvWrOsLW0NBQ4A0aBEG4AiHmJzHQNqt1tBkhLgdF+ekI4fBQVBTUtBKxWLxkyRI4HhVumFkdOp0uwGOkUqlGo5mC5ZA7YRiWk5PD/PjOOCKVSjdt2vTKK69M2TeQsEcT+ZiLsl555RXv37yplJKS8vzzzz/++OORujtDEMQjjzwy7XoGOzo6Dh48WFpaStM027WEqaCyCA/1d4LG46KdvnpBRjyG9vMYDo8XZBZJSkrasGFDpP7/NX2dP3/+q6++slgsAR6jVCoLCgrYmk3HxJEXXnjhzs0apVK5Y8eOZcuWTVkxkEVmBJFItGbNmt27d69YsWLKFic4HM7s2bNfeOGFZ599NiYmhu33YLLExcU98cQT+fn50+t8kMfjaWxs3LdvX2VlJdu1hKlg9mgmKEBeCZByfvIwLjctLe2ee+5h5S0C/pjN5vLy8sCLItnZ2SwGEYY3jtx7770SiYRJtKwUBns0M4VUKn3kkUdEItG+fftOnz7tcDgm9dOhKDp//vznn39+69atkX0lL7Nb//zzzzc1NR07dsztdrNdUbCcTmdNTc2bb76ZkpISzhc7s8VqtYb/nYJRUVEKhWLWrFlsFwJ+oqqq6uTJk0NDQ/4ewDSrajSaKesR8ccbRxYsWFBXV9fZ2Zmfnz/1hUEWmUFiYmIefPDB+Pj4uLi4zz//3Gq1Tvw1fcIwbNmyZS+99NKjjz46E9oReDzevHnzdu3a1dbWVl1dzXY5YzA4OKjVavft2/dv//Zv026baVI5HI7u7u7AE1fDAY7j2dnZEdmJNX1RFFVdXR3gKG9MTMzmzZvDIYgwMAy77777Vq5caTAYzGazUqmc+sIgi8wsIpFo1apVOI4nJyd//vnnN2/eDO3rczicuLi49evXb9++fd26dUKhkO3f8RTBMCw3N7ewsLCzs7OxsZHtcsagt7f3k08+kclkhYWF02ubaVLZbLbm5ubwX+WKjY1dunQp21WAnzAYDLW1tQE6sfLy8tRqdZgEEQaGYRiGMfsyrAxChCwy4zAnbP/lX/4lKyvr5MmTZ8+eDdVCtFQqzc3NXb9+/fr167Ozs2fapTMxMTEPPfSQyWR6/fXXJ3gt5xRra2t755130tPTH3vssZn2p+bPFDSLTByXy01KSlIoFGwXAn7CbDZ7PB4cx33+O5CcnPzggw+GZ4JkcRwzZJGZiOl3e/bZZ1etWvXVV19VVFTodDqfR8yDFB0drVQqN2zYcN999+Xk5MzYb68TExOfeeYZk8l08OBBtqa5jIPL5aqvry8qKpo1a9bKlSvZLicsTIssIhaL586dGxsby3Yh4CcUCkVhYWFeXp5er6+urh4x60ylUqnVariEYQTIIjOXQCBYsGBBRkbG6tWrz549e/Xq1Rs3bty4caO9vd3lco36dC6XGx8fn5mZOXfu3IULFy5btmz58uURfF4mGMxFxDt37mxpafnqq6/YLmcM7HZ7dXU1MwBtzpw5bJfDPubWdbarGEVMTMyiRYvYrgKMRBCEWq1WqVRGo1Gr1ep0umvXrtXV1fX398+fP1+j0cBS1p0gi8x0TBO1Uqns7Oy8ceNGXV3djRs3mpqaLBbL4OCg1Wq1Wq1DQ0MejycqKkosFovFYolEIpVKU1JS5s2bN3fu3Llz56ampsJ4A4Z3yCxJkleuXGG7nDEYGBgoKytLT0//53/+Z/hWm6bp/v5+tqsYhVgsHutt8mDKYBimUCjkcrlarb527ZpOpzt37lxeXp5KpWK7tHAEWQQgCILweLyUlJSUlJR77rnHarW2tLR4s8jg4ODg4CCCIFFRUVFRURKJRCKRxMTEJCcnx8fHQwP/naKiolQq1YsvvviHP/wh/L+3Hq6rq6ukpEQmk23fvn2Gh0uapm02G9tVjEIkEqWmprJdBQiEuf9FLpevWrXq6tWrOI5PzfUu0w5kEfATHA4nOjp6wYIFbBcyvcXGxj722GMmk2nPnj0BZgyEG4/HYzQa33rrrbS0NLVaPfEXnL5cLte0yCJTc1cImDgcx1evXs12FeELeuYBmBQpKSkFBQUPP/wwj8dju5YxoGm6trZ2z549NTU1bNfCpvDPIjweLzY2FnbTQGSALALApODxeHPnzi0sLMzNzWW7lrEZGho6c+bMvn372tra2K6FNS6XK8wXtDAMIwgCRWFtG0QCyCIATBahULh8+fJdu3bdddddbNcyNn19faWlpR988MHkDecNczRNUxTFdhWBMFmE7SoACA3IIgBMoujo6I0bN/785z+Pi4tju5axIUmyuLj4xIkTwRzwjjBut9tut4f5b5zP58+ECxbADAFZBIDJlZCQ8PTTT2/ZsmV6nUxxu90NDQ1FRUXffvst27VMtfBvFkEQhMfjzdihgiDyQBYBYHJxOJz09PQdO3bcf//9bNcyNg6H48KFC0VFRTdu3GC7likV/s0iCILweDyY3QkiBmQRACYdiqJZWVm7du1irp6aRqxW68mTJ99+++2enh62a5k602K4CJfLhXUREDEgiwAwFUQi0b333vviiy9Ou+FUPT09JSUlH330kd1uZ7uWKQJ7NABMMcgiAEwRHMc1Gs22bdskEgnbtYyBx+NpaWnZv3//yZMnPR4P2+VMBaZ3le0qRsHj8aZXBxIAAUAWAWDqEASxffv2TZs2TbsBaNevXy8qKrp06RLbtUyR8L/cwOPxuN1utqsAIDQgiwAwdbhcbmZmZmFh4apVq9iuZWxsNtvZs2eLioqam5vZrmXSTYu20GmxeANAkCCLADClBAJBTk5OYWHhvHnz2K5lbCwWy/Hjx997772BgQG2a5lcPB4vKiqK7SpGMS2aWgAIEmQRAKaaRCJ54IEHnn/++fj4eLZrGZuOjo7333+/tLSUpmm2a5lEKIqGf1soZBEQSSCLAMCC+Pj4rVu3PvXUU0KhkO1axsDtdjc2Nu7bt+/MmTNs1zKJpsURFcgiIJJAFgGABRwOJy0tbceOHRs2bAj/NsnhHA7HpUuXioqKrl+/znYtkwX2aACYYpBFAGAHiqILFizYtWvX0qVL2a5lbAYHB0+dOvXWW291dXWxXcuk4HA4fD4/zE/M2u323t5etqsAIDQgiwDAGpFItHr16sLCwtmzZ7Ndy9j09PR88sknhw4ditRvzVEUDfOjNBRFtbW1sV0FAKEBWQQANkml0k2bNm3fvj06OprtWsampaXlnXfeKSsri8gpF+HfMuJwOLq6uiI1C4KZBrIIACxLTk5+9tlnNRoNiqJs1zIGLpfLYDDs2bPnwoULbNcSeuHfMuJ2u/v7+yN1mwzMNJBFAGAZl8vNyMh46aWX1qxZw3YtY0NRVHV1dVFRkdFoZLuWEJsWx3ptNltrayvbVQAQApBFAGCfQCBYunTprl27FAoF27WMTX9//4kTJ4qLiy0WC9u1hFL479EgCGKz2ZqamtiuAoAQgCwCQFgQi8Xr1q178cUXExMT2a5lbLq6uj744INPPvnE6XSyXUvI8Pn8uLg4tqsYhdVqbWhoYLsKAEJgOu1Pg7Eym83ff/99+FxaIRQKMzIyMjIy2C4kTMXHxz/xxBNGo3H//v3TqCfR4/GYTKa9e/empaVt2LCB7XJCQyQSpaamsl3FKCwWS21trcvlml5XLQJwJ8giEcvj8dy4ceN3v/td+GSRhISEp59+GrJIAGlpac8//3xTU9Nnn33m8XjYLidYTqfzypUre/bsSUlJycrKYrucEIiKigr/g9YURZlMpra2tvAvFYDAIItELI/H09vbG1azulNSUlQqFdtVhDUej6dQKHbt2tXe3n7+/Hm2yxmDoaEhrVa7d+/e3/72twRBsF3ORAWZRTwuF22zoiLJnR/i8FBUJKFt1kmts6en5/Lly5BFwHQH/SIAhBcMw1auXLlz506ZTMZ2LWPT19dXWlr6wQcfDA0NsV3LRDF7NKOesnY5KFsf6fNDPAEmihslk3H9P8blsFO9JDIas9l86dIltt8tACYKsggAYScmJubhhx9+7rnnpFIp27WMTVtbW3Fx8YkTJ1wuF9u1TAiPx4uNjR21fdXtol1+Vj74Yjw2Uxn46aJYglih9vkhl4Oi+kbPIhaL5fLlyw6Hg+03DIAJgSwCQDhKSkp65plnNBoNn89nu5YxcLvdN27c2LNnj06nY7uWiRKLxaPufdA260Cr75Msojhi9r1bolMz/T2XK8BiM5WzlvvOIm4HZQtiXcRut9+8edNgMLD9bgEwIZBFAAhHHA4nIyNj586da9euZbuWsbHb7RcuXCgqKprux02joqLS09NH+c32d3dfqfL5IVQkTlKqZBu2+dyF4QqwxAV5mY/uxPzs0dgt3V1+XnmE9vb28vJytt8tACYEsggAYYrP52dnZ+/atWvRokVs1zI2AwMD5eXl77zzzrS+SDaYLELbrH2Ntf42U4QxCRnrtim2/jo5Z703kXB4qISQZ6zftuBn/5rib1HERQ/1tPQ16IOps6enp6qqqq+vj+03DIDxg3M0AISvqKgolUr10ksv/Z//839IcvQV+/DR3d196NChgYGB8DlSPlYikWjULOJx0dbWm23ny+ZsLLjzoxweT5J6V+amwgRFXu8t/UCTweWghDEJMemKxKzVEv/bN1RvR9u540GewXE4HPX19d99990DDzzA9nsGwDhBFgEgrMXFxT322GMmk6moqGganU/xeDzNzc2HDh2avmO4mGO9HA4n8KAXWx/ZUnk0cfGa6Fm+swUqEicsXh2/MM9hNbsdFF8i9XkG2Iu2WTsua5srjwZfKkmS5eXl69atm77vdsQzGo06nY4kSQzDcBzHMIz5AfNj5gds18gmyCIAhLtZs2YVFBSYTKbS0tJpdD6Fpunu7m62qxg/gUCQlJQUExMT+Kodt4PqqbvY9HXJ/C27UcxvyODweEJpfDCfd5A03fysKJjGVa/+/n6dTnfjxo1pd5/RzGEwGIqKivR6/Z1ZhCAIjUYzw2cvQRYBINzxeLx58+YVFha2tbWdO3eO7XJmCg6HExsbO3/+/FGHztn7u5sqP45JV8y+d8sEP6mtlzSeOhhk16qX2+1uaGg4cuTIv//7v8PSSHgiSdJkMlksFovF0tHRMfxD2dnZMzyIINC7CsC0IBQKc3NzCwsL58yZw3YtM0hcXFxOTs6oD/O46P5mw80T+8039RP5dLTNSl461VhWPI7n9vT0lJWVXb16lZ13CoyGJEl/LV8EQYxjVLHRaCwpKSkuLtbpdGazme3f30TBuggA00N0dLRarTaZTH/961/h0MTUwHE8JyeHy+W63e7Aj3Q7qO5r1dcPv5b5aGFi1ppxfC67pbv5m4+NFQfHtDvj5XK56uvrDx8+rFAoBAIB2+8c+Amz2dzR0UFRlM+Pji+LaLXaP/7xjxRFKZVKlUqVl5enUCimb9MJZBEApo3ExMSf/exnTU1N7733HozanAJisXju3LlJSUnBHGJyDppbzh6zW7pl9+cn+G9lvZPLQZlv6hsrPiDPl/mbnBaM3t7eioqKxx57bNmyZWy/c+AnjEaj0Wj099FxZBGDwVBeXl5XV4cgCEmSer1eoVB4Q8l0TCSQRQCYNjgcjkwm27FjR3Nz88mTJ6fRRb7TFIfDSUpKWrJkSZAHqmmblfz+VH9TXcqKjfIN24JZILFbulvOHmv+5mj7+bIJVssMvT148OC8efNiYmLYfvPAjwwGg7/ZuEzvKoZhwb8aRVFlZWVarZb5qd1uN5lMJpNJq9VqtVomjuTl5U2vKyohiwAwnaAounjx4pdffrmtre3KlStslxP5YmNjly1bdvLkySAf73HRgx1GY8UHg6QxbY1GkpqJZ2RhsSO/KtA2q9lYa21t6L5ePcHlkOHMZvOXX36Zl5f31FNPcbnQDhgWzGazXq/3ty4ik8nkcvmYXlCv15eXl9+Zj+12e3V1tV6vLywszMvLY/v3PTaQRQCYZqKiou65556dO3f+4Q9/aGtrY7ucCIfjuFKpFAgEY9oUYxZI+m7WRM/KlGYsEiWm8UUSDg/lCTCn1ey0WWnboMVYa21tCFUKYXg8HpPJ9Pbbby9YsCA7O5vtNw8gCIIYDIaamppQNYuYzeaysrIA9z1lZGRMu0URBLIIANNRbGysRqMxGo1FRUVWa1DTOcH4CIVCmUyWnp4+1ut1PC6a6iWpXrKrtorDQ1GRhMNDUQHmsJrvHKiKcTG5RE6ICIyHERiBIAjtoa1Oq9Vpre2vJW1j6GZl7gN6++23/9f/+l+j3jMc8bq7u51OZ0JCAot3TOr1er1e7++jcrk8+HURs9lcWlp67NgxfwdnMAzbuHHjdDwhDFkEgGkpJSWloKCgqanp448/nkYD0Kaj+Pj4nJyciVz153HRTqsZQZARSytMBFFIFXnxefKoO7IIbbXSVn2vvra/tqG/IfhQ0tfXd/z4caVS+eyzz6LozP1Hvqen55NPPvF4PI8//nhiYiIrNRiNxurqan/9RnK5fExrGHq9/t133w2QbLKzs9Vq9bRbFEEgiwAwTXG53Llz5zID0KqqxjYaC4wJM2Xk8OHDoX1ZnI+rU9WaWZr50vlKXOnvYXnxed32bkO/QduprSArqrqC+rNubm7ev39/Wlra+vXrORwOq+8fOwYGBo4fP/7mm2/m5OSo1eqJv+D4BF4Uyc7OViqVwb9UcXFxgFfDcVytVk+7ThEGZBEApiuBQLB8+fJdu3aRJDmR79pBYNHR0YsXL8ZxPFQTpTAupoxT5qfnr01eGyCFMHgcXjKWnCBMUMQo8uLzDhoPVnRUjLpA4nQ69Xr9f//3f8fExOTm5rL9Fk41m81WUVGxb9++2trau+++m60ySJLU6XT+ulYxDFMoFEFu0DAj5APsziC357dOxwO9CGQRAKY1iUSyYcOGpqam1157raenh+1yIhOKonK5fMWKFcGfpgkA42J5iXn/uuBf1Slj+GadSSTrifVysVwulh9vP67v1Qd+ytDQUGVlpVQqlUgkixYtYvUtnFJOp7OqqqqoqOi7775jd/tSp9OVl5f7Sw/z588PchbIqG0iCIIQBKFWq4NfZQk3cOgLgOktISFh69atTz75pFAoZLuWiEUQxEMPPTTxq17GF0S8eBxeZnRmYWbh7nm7lXHKUR8/MDDw5Zdf7tmzJ8CgrQjjcDjOnj37j3/848yZM06nk8VKDAZDaWmpv7EiCIIolcpgogMTRA4fPhxgyA2O45s3b9ZoNNN0UQSBLALAdMfhcGbPnv3CCy+sW7duZnYGTIGYmJjly5dnZgY7StUfuUQ+7iDC4HF4qVGpmlTNrxW/XpM4+iy13t7eo0eP7tu3z2QyTfGbNvUcDkdVVdVf//rXiooKm83GYiXMOLLy8vIAR3mVSuWoTaZMEPnb3/4WoE0EQZDc3NyCgoJpfUszZBEApj0URRctWvTyyy/DSIlJwuVyZTLZhg0bJvIiBEY8N+e5iQQRL6lAqknVvLrwVfWs0V+to6OjuLj4H//4BzMyPFLZ7fYzZ868/vrrFRUVg4OD7BbjbxyZV25urkqlCjxuNcggolQqCwoKpu/uDAOyCACRQCQSrV69urCwMC0tje1aIlNCQsK6detiY2PH93QJKllPrC/IKAhVPWJUvD55/asLXt2UuknClwR+cHt7+zvvvDPqV7Xpa2ho6PTp03/5y18qKiqGhobYLWbUcWRyuVytVgdexggyiCgUip07d6rV6jFNkQ9D0LsKQITAcfyRRx4xmUxvvPHGwMAA2+VEGqFQqFAoVqxYUV5ePo6np0WlPSN/hpkd4g/tprsd3aSNRDkoLsBxAS5BA4UMIU+YF5/3H4v+gxASJc0lVmegqXfd3d2HDh0aHBxkBoRH0nZeb29veXn5/v37z507x+7WDBJcn+natWsDpwe9Xs+8SOAgEgFtIl6QRQCIHARBPPvss01NTSUlJTAALeRSUlIeeuihU6dO0TQ9pidKUEleQl7g9o5ue/eJ1hO6Xt0PWYSPp4pTVYmqZfHLAiQSIU+4LG6ZRCFBOWhpW2ngs75ms/nTTz/t7+9/8cUX165dKxaL2X5HQ6C5ufnTTz8tLi6+cuXKWP9cJoNOp9u7d2+ADKFUKjUaTYCjvHq9/vXXXw+cZpDbQSQ/P386Tja7E2QRACIHl8u96667XnrppZaWlsrKSrbLiTTR0dErVqy46667xtp4kSBMWJu01l+koFyU3qz/oPGDMrKsYeDHOTESVHK26+zmtM1qQp0Z7bdtlsfhKWIUuxW7cSF+tPno8Fe408DAQFlZGUmS9fX1mzZtmng3Lotomr5+/XpJScnhw4dv3boVDtdWBzOObPPmzf5mtJvNZq1WW1xcXFlZGUwQ2b1793RvE/GCLAJARBEIBHfffTczAC2yexWnHpfLnT179saNG8f6xuJ8XBmr9PfRDqpj7429xY3FI37dSlu1HVqj1UhSZIG8IHAcyYzO3HHXDgkqKW4sDhxHKIo6f/58U1OTwWDYsmXL6tWrRSIR22/tmPX29p45c+bw4cNff/11R0cH2+UgyO1xZAHOziABx5EZjcbS0tLAI94ZkRdEEMgiAEQeiUSybt26pqamP//5z11dXWyXE1GYDtaDBw/29vYG/ywJX5Ip8Z0kzA5zWXtZGVnm86O0hzYOGg8bD9NuOl+WH2BIK4/Dk4vl+bJ8lIOWNJcEnoTmdrvb2tref//969evb9269eGHH5bJZGy/tcGiabquru7YsWOlpaWXL1+22+1sV4QgExtHRlGUXq8vKSk5duzYqJNgIjKIIJBFAIhICQkJTz31lMlkOnDgQIDv0sBYCYXCRYsWrVu37siRI0E+BeNiqVGp/jZoOqiO0pZAfR5MHPmg8QPSRu5W7B41jmyTbyNExOv1rwczmLWqqqqxsdFgMDzxxBMrV64UCARsv8GBuN3upqamqqqqL774QqvVtre3s13RDyYyjowkybKyspKSkurq6lEvGYjUIIJAFgEgUqWlpT3//PPNzc3Hjx93u91slxM5Zs2atXXr1jNnzgT4wjOc9+pdn6y0tcE6yl1CtIdusbUcazlGe+jCzMIAPbDeSWgoFy26UTTqRXput7u5ufntt9++fv36E088sX79+oyMjImPlw05t9vd2tp69uzZr7/+urKysrGxkd2ZqsMFefh27dq1hYWFw8/xms1mnU7HjEQLMJ7VK4KDCAJZBIBIxePxFi5cuGvXrtbW1osXL7JdTuQQiUTLly9/5JFH9u/fP/F+ScpFjXrRHcPsNB9rOWZ2mF+Z90rggWnMJDScj79x442ytrJRX3lwcPD06dP19fXnzp1buXJlXl7eggULwuRKAY/H09bWdu7cua+//lqr1d68edPhcLBd1I+CPHw7YhyZ2WzW6/VarbasrKympiaYlcvIDiIIZBEAIhiGYStXrty1a9d//dd/NTU1sV1O5CAI4vHHHz916tStW7cm+FIoB5XwJVbaGsyDrbT1FHmKeXDgOMJMQpOgEpSDaju1gUePIAjicrmampo++OCDr776iokjK1euzMnJYbGtlabp9vb27777TqvVarXa+vr6MGkN8Qry8K1SqfzVr37FnJ2hKMpgMJSVlTEpJMibn+Vy+ebNmyNguGoAkEUAiGRSqfThhx82Go1///vfLRYL2+VECIFAkJ2d/cQTT/zlL38ZdY4L7aEDRI0EYcKaxDVHm44G+akpN1XdXf37q783O8ybUjcFHj0S/CQ0hsvlam9v//TTT0+fPp2Tk6NWq1euXLlo0SKpVDpl763b7e7u7r527drly5evXLly/vz5GzdusD7B7E5jmgKi0WgQBNHpdDqdTqvVVldXB7vBh2FKpXLr1q2BR5JEAMgiAES45OTkbdu2NTU1ffjhh+EwDCoyJCYmPvroo2VlZVeuXAn8SMpFtQy2WGmrz9yQIExQJanK2suCyQo/vKCbqu6utjgsVtqaL8sP1SQ0L4/H09fXV1FRUVNTs3Tp0tzc3MWLF8+ZMyc9PT0uLm7yukn6+vrq6upqa2svX758+fLl69evd3d3h2Gr01ingOTl5Wm1Wp1Op9fra2pqgkwhzNM3btxYUFCQl5cXAZNVA4MsAkCE43A4c+bMYQagff3112yXEyFQFFUoFPn5+XV1dYE7GGgP3ePoISnS57FeCV+yJmGNOkUd/NII85qGfsPf6v5GuakQTkIboaur6+TJk99++61MJsvIyJAPE5Jc4nK5+vr62tvb29rampub6+vrr1y5cvXq1fb29rANzcFPAYmJiVm8eDGO46WlpTqdrq6ubkwn2hQKBTNWNYL3ZYaDLAJA5OPz+UqlkhmAdu3aNbbLiRBxcXEbN248ceLEt99+G/iRZodZ36f3mUWYrPDK3FcoFxVMY4fXD3HE8LfQTkK7k9VqvXr16tWrVzkcTkxMzOzZs72JRCaTJSUlRUdHR90mEomEQuGdGcXtdlMURVGUzWYzm80kSba2tra1tbW1tTE/aGlp6erqCreOkOHGNAUEQRCPx2M2m4N88HA4jnv3ZSJjvnswIIsAMCOIxeL777+/ubn5T3/6U5jMqZzuuFxuZmbm008/ffnyZas14L109u6q7qots7f4/Og4GjsYY52Etk2+DRfg+2/tH3X0iE8ej8disVgsltraWiaXpKWlJScnSySSqJ8SiURRUVECgWB4BPH+t6+vjyTJtra2jo6OoaGhcJjdPiqj0VhWVlZaWhrMFBDGwMDAqPt3d2LaVDUajVKpjPh9meEgiwTF7Xb39/dPr9Y/l8s1ODjIdhUgjMTFxT3xxBMmk2nfvn1h2Aw4HcXExKxbt27t2rUnTpwI8DArbdV16aq6qvyNBhlfYwcyxkloMrFsm2ybBJUEMwktMG8uuXr16ogPcblcDMO8WYTJH06nMww7P4JBkiRz+LaysnKsKxxjQhCESqXauHGjSqWK7DZVnyCLBMVqtb711ltffvkl24WMgcfjgWOcYITU1NSf//znTU1Nx44dm6ZfG8IKh8ORyWTPPfecwWC4efOmv4fRHrquv+6g6WBmdKa/uWfjbuwIfhIacnv0CMbDihuLgxk9Mg5ut3toaGhoaGgiL4JxeAQfI/ginCvAuXwcFeBcPsblUR63mXaY3Q6jY9Bg7ze7JnHWCJNCtFptZWVlMLPIxg3H8by8vI0bN6rV6uHD0GYUyCJBGRoaOnp0DJ1lAIQnHo83f/78Xbt2tbW1VVdXs11OJIiKilq7du327dv//Oc/B9ipsdLWs51ny9rKCuYU+HvMRBo7xjoJjYlEkxRHxsEbPgieSC6IIvgigocRfAznCnBUgHMFUh4f4/DsHpfZ7TDTTqNzUG/rM9j79bY+g6OfcrsmXgODoiij0cicv53sFIJhmEKh2LhxI7Mpg2HYVLzXYQmyCAAzC4Zhubm5hYWFnZ2djY2NbJcTCRITE5988smrV68ePXrU32oT7aEbBhqKG4sJEREgK0ykscM7CY1206pk1eijRxb+B87Hj7cdD75DJYT8hQ8CFcn4EpzH9105h5fMEyXzRPOFMSpxEknbdEM92sFOrbXDYO+fSD1MBNHr9QaDwWAwVFdXT+qOjEAgkMvl9913n1qtzsvLmzk9qv5AFgFgxomJiXnwwQdNJtPrr78eZCMeCIA5Nb1jx476+voARz2ZuSCvGV6ToJLAd8qMu7GD+RT/37X/j6TIUUeP5CXk4QIc42LFjcVT8C6NL3wEIOTwZHwJESPKi4pXYrHFfbf0VF/wCyQURZEkSZIkRVHt7e0Gg6Gurk6v15tMpim4TtLj8QiFQqVSqVKpZlSPqj+QRQCYiZKSkn72s5+ZTKYPPvggrC74mKaEQuHy5ctffPHF3/3ud11dXf4e5o0jCIJMUmMH5aYu9FywOq20h9akaQJcy/fDceJ5r5B2cjI2a0IePny/8xyejC/Jx9MJFCvqbdAOdgQZR7RabUlJiTeLmEymqTxR7HQ66+vri4uLjUajQqHIy8ubsZ0iDMgiAMxEHA5HLpczA9C++uortsuJBDiOP/zww1evXt2/f3+AeMfspNBuevIaO7yjR8xO85a0LYFHj2RJs36t+LXVaR31Ut9RTU348P1ecQXq6BSMy0UQJEAcMZvNxtuOHTum1Wonr6RR2e326upqvV7PnKBRqVRKpVKhUMzMrhHIIgDMUHw+f8mSJbt27Wpvb6+trWW7nEiQmpq6fft2g8EQeL7tFDR20B66wdpwoOGAlbYGnoTGfIrCzMIGa0PwZ4kZLIYPH78RDk8lTqY8LrPLoRvq9v56b2/v999/f+nSJeMwJpMpTHYn7Xa7yWQqKSnRarV5eXkajUalUs3A9hHIIgDMXFFRUSqV6qWXXvrDH/4Q/DUZwB8URbOysl588cXGxsbAfcHjaOyQ8CTjmIT2QeMHZrt5R+aOAKNHxKhYlaTaMnvLG/VvBPPKOE8gF4iVWKwCi2ExfPh4rzg8lTi5QTrY4hxqcf5wqPjSpUu9vb39/f3hkz/uxCQSkiQNBoNer1er1TDrDAAwg8TGxj722GNGo3Hv3r0wHG/ixGLxfffdt3379r/85S8DAwMBHjnWxo7dit0YDysjy8Y0esQ4aPzA+IGVtgaehEaICE2q5mjz0cBLIzhPoMRiVZIkJYZnY3FygZjdd/vHN9PjIp0U6aRIl83o+Mnb3tTUFPJJSwKBICoqis/ni8ViiUSCYRiGYVar1Xzb+F7WbrfX1NQwx3nUavWMGjcCWQSAmW7WrFnMALRPP/3U5QrZnIYZKzExkekLLikpCXwiY0yNHUwcIUTE+EaPBJ6ExpwlXpO4JsAVfQphjCYmTR2dko3FTdkSyA8hg6bMLgflcWFcHsHD5AIJzuMPzx8GymJwDJBOG0nbTM6hSZqBJhAICIKYNWvWvHnzFixYEB0dfWcWsVgsJEkyicRoNBoMhrFGE4vFotVqmQUSjUYzQ078QhYBYKbjcrlz587dtWtXa2vruXPn2C5n2uNyuXPmzHnllVcGBwdLS0udTmeABwff2MHEhXxZPspBS5pLxnTWN5hJaAnChABZRInFFsZnbo6ZTaCT21npDR8kbTM6BjtoG0lTpNNmdjsot5vpUFmE4QQP63bZjc7Byc4fKIoSBJGWlqZQKObOnctkEeZqQH9NphRFebNITU2NwWAwGo3M+eEgc4m3iUSv1+fn5+fn50f8VHjIIgCAH46kvvzyy52dnQFmmYMgoSi6ePHiX/7ylwMDAydPngw8bj/4xg7vJDRCRIx19AjTMItwkExJps/EI+FLsmKyCBFx5zaNEovdnTh/c/TsyVgO8Rc+SNpm9JkwbEiFlRRyuINuF+WZlGU8Pp8vEomkUmlubm52drY3iwQZCDAMIwiCIAiFQqFSqUiSZLKIyWTSarU6nS74RFJTU8Nca1xQUKBUKifjNxsmIIsAABAEQaKjozdu3Ggymf7yl7/09vayXc60JxAIcnJydu/ePTQ09M033wR+cPCNHTwOLzUqVZOqQblo0Y2iMR3EpdzUxZ6LR1uOvrrgVZ+vTIiITEnmiCwS8iAy5vBxB6ubDvmkWBRF4+LisrKylixZkpCQ4M0iWVlZE3lZDMOYRRQEQSiKWrt2LTNXXqfTBTld3mQyFRcXkyRZWFiYl5cXqSd+IYsAAH6QkJDw9NNPm0ymd999FwagTZxIJFq9evUvf/nLwcHBixcvjvp4ZieFclEFcwqCGT2C8/E3brwxptEj3fZuLal9Ze4rPk/uSFBJZnTm8HwjF4gL4uZMMIhMPHxMEmYQ+8KFC+VyeXx8vDeLTNIBFgzD8vLylEolSZKVlZVMU0gwDSUWi6W0tNRsNhcWFkbqnFbIIgCAH3A4nPT09BdffLG5ubm8vNzj8bBd0bQnkUjWr19vtVr/9Kc/Xb9+fdTHM3GEpEgEQQLHETEqXp+8nokUwccR2kP3OHpIisyU+NimQTmohP+TjKISJ22OThtTEGGSh9nloDzucAsfyO2FCmbDJTEx0ZtFpuwLPFMAQRBr167V6/Xl5eVlZWWj3n1jt9u1Wi3TiaJWqyOvmxWyCADgR8yEDGYAWk1NDdvlRAKpVPrII4/09/f/5S9/Cea6NWb0yO+v/t7sMG9K3TQpV9z5CZm0hx7+IgphzEbJrFEP7vpc9jC7HJTbFQ7hA0EQHMfltyUnJ3uzCIsLDN5EolAolEplaWnpqH0kdrudeQxJkpHXzQpZBADwEyKR6N5772UGoLW2trJdTiSIi4t76qmnBgYG/v73vwczU46JIxaHxUpbQz4JDeNhhCio76pV4iSVJDnAA8wuh54yVw91G+z9YbLs4ZWIChGE00VTSqVSo9FkZ2czWSSsNjgwDGNSUXZ29rFjx8rKygwGQ4Bz4N5uVgRBCgoKIml1BLIIAGAkHMc1Gk1TU9M//vEPq5WFC+UjT3Jy8vbt261W6zvvvBNMHPlh9Ejd3yg3pSbUwYweCWYSGs7Hc+Jz/IUb2k1bb3eFSrhotiguwAlePdV3zNKqHST1lDkc8scPA+lREYGK5IKoBBSrtHZ8ZSWXLl1aUFAgk8nYLtB/5RiWl5fnTSRarTbw3xDmuC/zP2nExBHIIgAAHwiC2L59u8lkOnLkCAxAC4nU1NSdO3cKBIJ33303mM0a7yQ0kiJHHT0S5CQ0uVhekFHg76NW2tpg/eG5CTyhQhDj75EGe//enhslliaWmz+G5Y/5wmiFMIb5qZwv7qCpWsrMYm1jRRCERqNhlklKSkoC/w0xGAzFxcUYhmk0mrBa6Rk3yCIAAB+4XG5mZmZhYWFLS0tV1URvcAXI7dbgwsJCiURy4MCBYI50Mmd9DxsPIwgy8UloBEZslW/1d2CYdtMkRTb0/5BFmEtnfD6S8rjKB9pL+1vZDSKZguiN0SnLRHHe/IHzBN6P1lB9JE1N4OVZgGEYcw0NQRDFxcV6vd7fI+12e/CT06YFyCIAAN+YCRm7du3q7Oysr69nu5xIwOFwCIL4+c9/Hh0dvW/fvu+//37Up4xjEppcIi8xleh6dMykEJSDJmAJWdKsLbO3bE7b7O/pFqflQt8F7x4NxuUO/9I+nMk5qLN1k7SNxXdSicXuiLtrc0xaGj/K5wOMjkGjY1rerySXy5977jmCIIqKinQ6nc/2EaVSuXXrVrVaHRmLIghkEQBAABKJ5IEHHmhubn7ttde6u7sn/oIAQZD4+Pj8/Pzo6Og9e/Z8++23gaeyIuOahKaIUVR1VjVYG1AuivPxBGHCInzRmoQ1AT5Ly1DL8AHwKMLFuFyfjzQ6rCx+mWfu5yuIywgw9cTschjs/eympQn9HnF88+bNUql07969Wq12xPqHUqn81a9+FTG7MwzIIgCAQOLj47du3Woymd5++2273c52ORFCKpU++uij0dHRb7zxxtdff03T9KhPCX4SmpAnzMazs6RZVtrK4/ACHMP58cUdZm2XVt+nZ36KIhwpKsA4PN8PdjnNLueorxkqPzSF8EUETyQXRMkFEuaW4ABTT+oc/XrKTLmncZ8ThmEqlQrDMBzHy8rKmG5WHMeVSuVzzz0XYUEEgSwCAAiMw+GkpaXt2LGjqanpiy++gAFoocKMQROLxWKx+Msvvwx8oy8j+EloCILwODwpXxpMJZSLqu6pLr5V/NNfDvwHPYl/DUaED4IvIngY0xQi40tGHbxGeVy6wR69rW/yKpwazPkaDMMoiiotLcUwbPPmzczFNBEWRBDIIgCAUaEoumDBgpdffrm9vT2YFgcQJGZIPBNHSktLgzk+HfwktOB1UB0lphLvogiCIDTiMdNOyu32uU1DoBiBigz2/lC9DxMMHyPUUH1l1vbpu0Hzk3cGw5iFEARBpFJpYWFhpN6QB1kEADA65qvmzp07f//73zc3N7NdTuQQCoU5OTm/+c1voqOjP/3009BOQgsGaSOLbxWXkSOnyNs9LrPbQXB9zBeRCyRKUaye6hv3OZrQho/hjM7Bkj6TbihyepuYzRqCIJjBaGyXM1kgiwAAgsK0OJhMpjfeeKO/P2TfEwMURRctWvSb3/wmLS3to48+unz58qgbYcFPQguMtJF7G/YW3SwacTcvgiBml8PoGPQ564xAMU1MqsHeXzbQFuQnmrzwMaLmY5aW0oGWcJi9FkLM6gjbVUwuyCIAgGAlJSVt3769qamppKQkmHZLECQej5eRkbFr166MjIz3339fq9XabKNsMXgnobUMteTL8gMcrvH9dPcPZ3N8BhEEQbppu8HenxcVf+eHhBxeXlRCYXwmgiC6oe47v/BjHB7G5eE8/mSHj+HMLsex/tZi861pepR3hoMsAgAIFpfLzcjI2LlzZ3Nzc2VlJdvlRJrY2NjHHntMJpPJZLJjx461t7cHfrx39IjRasyX5ecl5BFYUBPBzQ7zqY5TpS2lFR0VPoMIgiBWN22wW8wup8/cIOTw1JIUnMsv7W/V23pJlx3xeHBU4E0eGIeLcwWTGj6GM9j7j/W3lFhMEdCyOjNBFgEAjIFAIFi6dOnLL7/c0dERzORQMCYYhuXm5qakpDCDwGtqagLv19AeusXWcqzlWN1A3eqE1XkJeaokFS7AfTaRUC7KOGg0DBgqycrhJ3h9vzLiqaH6/C2NILdXR+QCsdExRNI2xIPgKH9qksdwZpdDN9Rz2GIqG4iQftWZCbIIAGBsxGLxunXrWlpa/vjHP3Z1dbFdTqRh9mt27twpl8vff//906dPDw0NBX4K5ab0ffpac215e3llUmU8Fi8Xy9NEaRL+D4mESSEmq4nJIoFTiJfe1qe1diiEMf6yhZDDk/ElMn4IzvKMFeVxkU7KYO+vHuops7ZO92kiALIIAGDM4uPjn3jiicbGxgMHDoza2QDGgZm8KZfLMzMzy8rK6uvrg2lobbA2NFgbUA6aIExIi0rzro5QLso4ZPS3HeMPSVPHBlqUolh1dArb7weC3M4fJE2RtK3O3m+w9xsoi8ExEGGdqjMTZBEAwHikpaW98MILTU1Nx48fH3WKORgHDMOWL1+enp7OXCVfWVkZ5F1otIcmKZIZiTZBeltvsfkWgYqUInzq34Hh4cPoGOygbSRNkU4bSduMziGIIJEEsggAYDx4PJ5CoWAGoH333XdslxOZuFxuSkrKz372MyaOnDhxQq/Xu1xTtxlBedzl/W0EKtrNm+/v2t6QfjoIHzMUZBEAwDgxM6oLCws7OztNJhPb5UQsoVB49913y+VypVJZWlpaUVHR1hbsYI+JM7udxyzNCOIpwO8K+eoIhA/AgCwCABg/qVT68MMPNzU1vf766xaLhe1yIllcXNwjjzySlZWVnZ39+eefV1dXT1mnjtE5+G7vLdJJFcTOyYtKGPcxGcrjotxus8sB4QOMAFkEADAhSUlJP/vZz4xG44cffuh0Tt31rTMQiqJz587duXPn0qVLv/jii8rKysuXL0/N5clmt/NYf7PJObg5Jk0lTlIIpcEkkjuXPSiPy+xyQvgAI0AWAQBMCIfD8Q5A+/rrr9kuJ/KJxWKVSrVkyZK1a9eePn369OnTV69edTgm/Ys65XHrhrqNDmultTNbhCuEUoUwWi6Q4FyB9wo92HMB4wNZBAAwUXw+f8mSJb/4xS9Ikrx27Rrb5UQ+DocTHx//8MMPr1ix4p577jl9+rRWq71+/foUrEuRNFVmbdMOkgRfpBBI5cIoKVeAcwUIB6HcLrvHBeEDjANkEQBACDDfrL/44ot/+tOfgrlsFkwch8NJSkp69NFHV65cySSSb7755vr161Nw0IbyuI2OQaNjELEiCIJgHC7C4YTbtDE+n5+WljZv3ryoqCi2awGjgCwCAAiNuLi4J554wmQy7du3b9RRoSBUuFxucnLy448/vmrVqnvvvffs2bPffffdtWvXpvIuZcrjRjwTf5nQ4PF4ycnJWVlZWVlZS5YsWb58uVQqZbsoMArIIgCAkJk1a9bzzz/f1NRUWloKA9CmEpfLnTVr1pNPPnnfffddunTpu+++u3jx4qVLl5qbm2fIHwSHw0lISFiwYAETQRYvXjx//vy4uDgOh8N2aWB0kEUAACHD4/HmzZu3a9eutrY2nU7HdjkzDpfLTUpK2rhx49q1aw0Gw4XbDAbD4OAg29VNFhzH582b540gCxcuTEpK4t5upwXTQrhkEQ6Hw+dP3dWOAIBJIhQKc3Nzd+3a1dHR0djYyHY5MxSGYUqlcvHixQ8//PDFixcvXLhw6dKl69evNzU1Tc0Z4CkQExOTkZGRlZW1ePHiJUuWLFq0KCUlBb6OTFPhkkUEAkFubu7vfvc7tguJHG63u7Gx8f3332e7EDDjREdHq9Vqk8n017/+ta+vj+1yZi4ej5eSkrJp06b777/fYDBcv369vr7eYDAYDIbGxsaBgQG2CxyzqKioWbNmzZkzZ86cORkZGfPmzVu0aFF6erpQKGS7NDAh4ZJFUBS9++677777brYLiRxut/urr76KgCwS5mtmYV4eWxITE59++mmj0Xjw4MEpGH0xDjPqDy4qKor5B3ZoaMhkMjFxpK6urq6urqGhoaenZ9RLgFkkEAgIgmDCR0ZGBhNE5HJ5YmIiiobLlzAwQfAHCcKdRCK57777wvbfypSUlOTkZLarCDscDkcul+/evTszMzM8swiKogqFgu0qplpUVNSCBQsWLFjgdDpbW1sNBkN9ff2tW7daW1tbW1tbWlo6OzvDYROHz+cnJCTI5XJv+GCCCEEQsAQSkSCLgHAnEonuueeee+65h+1CwNigKLp48eLFixezXQjwgc/ny+VyuVz+wAMPWCyW1tbWtra2lpYWJpEw/zWZTAMDA1MwrYTP58fGxiYkJCQlJXn/m5qaKpPJ5syZk5qaCgNCIh5kEQAAmLm4XG5sbGxsbGxWVhaCIDRNd3V1MXHEZDJ1d3dbLBbzHYaGhsaRUfh8vkAgwDBMJBLhOD48eYz4r1QqFQgEbL83YOpAFgEAAPADFEVTUlJSUlKWL1+OIIjT6ezv778ziwwMDNhsNqfT6XA4aJp2OBxOp9P7U4/Hw+fzhUKhUCjEMMz7AyaICIXCqKio4VkkJiZm5vTuAJ8giwAAAPCNz+fHx8fHx8eP+HWXy2W32+9MIcx/3W63QCDwJg9vEIFWU+AP/M0AAAAwNjweD3o4QAjBZDoAAAAAsAmyCAAAAADYBFkEAAAAAGyCLAIAAAAANkEWAQAAAACbIIsAAAAAgE2QRQAAAADAJsgiAAAAAGATZBEAAAAAsAmyCAAAAADYBFkEAAAAAGyCLAIAAAAANkEWAQAAAACbIIsAAAAAgE2QRQAAAADAJsgiAAAAAGATZBEAAAAAsAmyCAAAAADYBFkEAAAAAGyCLAIAAAAANkEWAQAAAACbIIsAAAAAgE2QRQAAAADAJsgiAAAAAGATZBEAAAAAsAmyCAAAAADYBFkEAAAAAGyCLAIAAAAANkEWAQAAAACbIIsAAAAAgE2QRQAAAADAJsgiAAAAAGATZBEAAAAAsAmyCAAAAADYBFkEAAAAAGyCLAIAAAAANkEWAQAAAACbIIsAAAAAgE2QRQAAAADAJsgiAAAAAGATZBEAAAAAsAmyCAAAAADYBFkkkvF4PD6fz3YVP+JyuUKhkO0qAAAAhBeOx+NhuwYwWcxm85UrV9xuN9uF/EAoFM6ePTs1NZXtQgAAAIQRyCIAAAAAYBPs0QAAAACATZBFAAAAAMAmyCIAAAAAYBNkEQAAAACwCbIIAAAAANgEWQQAAAAAbIIsAgAAAAA2QRYBAAAAAJsgiwAAAACATZBFAAAAAMAmyCIAAAAAYBNkEQAAAACwCbIIAAAAANgEWQQAAAAAbIIsAgAAAAA2QRYBAAAAAJsgiwAAAACATZBFAAAAAMAmyCIAAAAAYBNkEQAAAACwCbIIAAAAANgEWQQAAAAAbIIsAgAAAAA2QRYBAAAAAJsgiwAAAACATZBFAAAAAMAmyCIAAAAAYBNkEQAAAACwCbIIAAAAANj0/wMrADh+7APx/wAAACV0RVh0ZGF0ZTpjcmVhdGUAMjAyMy0xMS0yNlQwMzo0OToyNSswMDowMOHXldMAAAAldEVYdGRhdGU6bW9kaWZ5ADIwMjMtMTEtMjZUMDM6NDk6MjUrMDA6MDCQii1vAAAAAElFTkSuQmCC;" vertex="1" parent="1">
          <mxGeometry y="201" width="729" height="327" as="geometry" />
        </mxCell>
      </root>
    </mxGraphModel>
  </diagram>
</mxfile>
